<?xml version="1.0" standalone="no"?>
<!DOCTYPE svg PUBLIC "-//W3C//DTD SVG 20010904//EN"
 "http://www.w3.org/TR/2001/REC-SVG-20010904/DTD/svg10.dtd">
<svg version="1.0" xmlns="http://www.w3.org/2000/svg"
 width="512.000000pt" height="512.000000pt" viewBox="0 0 512.000000 512.000000"
 preserveAspectRatio="xMidYMid meet">

<g transform="translate(0.000000,512.000000) scale(0.100000,-0.100000)"
fill="#000000" stroke="none">
<path d="M3546 5104 c-127 -31 -262 -135 -324 -252 -34 -64 -62 -158 -62 -209
l0 -33 -644 0 -644 0 -388 105 c-231 63 -403 105 -423 103 -22 -2 -40 -12 -53
-28 -17 -24 -1008 -3640 -1008 -3681 0 -10 10 -30 23 -44 19 -23 83 -43 507
-158 l485 -132 17 -37 c23 -49 56 -58 207 -58 l126 0 1248 -340 c687 -187
1257 -340 1267 -340 11 0 30 10 45 23 22 19 38 69 112 339 l86 317 474 3 475
3 24 28 24 28 0 1904 0 1904 -24 28 -24 28 -444 3 -444 3 -12 76 c-47 295
-335 487 -626 417z m207 -169 c69 -18 120 -49 169 -103 45 -50 62 -82 78 -151
56 -240 -168 -458 -414 -402 -107 25 -216 130 -244 237 -49 183 62 376 240
420 71 17 104 17 171 -1z m-2568 -315 c16 -7 13 -9 -17 -9 -21 -1 -38 4 -38 9
0 12 27 12 55 0z m1538 -582 c-221 -222 -406 -414 -411 -427 -5 -13 -7 -34 -4
-46 2 -12 71 -89 153 -171 136 -136 151 -148 184 -148 34 0 59 24 468 431
l432 431 90 -5 c108 -7 173 6 264 49 85 40 175 130 221 220 l35 68 398 0 397
0 0 -1795 0 -1795 -1877 2 -1878 3 -3 1780 c-1 979 0 1786 3 1793 3 9 206 12
967 12 l963 0 -402 -402z m288 -220 l-366 -368 -67 67 -68 68 366 366 366 367
67 -67 67 -66 -365 -367z m-1993 -2864 c-7 -6 -823 224 -822 232 0 5 185 687
410 1515 l409 1506 3 -1625 c1 -894 1 -1626 0 -1628z m2922 -285 c0 -19 -121
-464 -128 -470 -4 -4 -407 102 -897 236 l-890 244 958 0 c688 1 957 -2 957
-10z"/>
<path d="M1880 2815 l0 -85 255 0 255 0 0 85 0 85 -255 0 -255 0 0 -85z"/>
<path d="M2560 2815 l0 -85 640 0 640 0 0 85 0 85 -640 0 -640 0 0 -85z"/>
<path d="M2560 2305 l0 -85 385 0 385 0 0 85 0 85 -385 0 -385 0 0 -85z"/>
</g>
</svg>
