<svg width="9" height="9" viewBox="0 0 9 9" fill="none" xmlns="http://www.w3.org/2000/svg">
<path d="M5.18617 4.25L8.36421 1.07162C8.45163 0.984129 8.49986 0.867402 8.5 0.742934C8.5 0.618398 8.45177 0.501533 8.36421 0.414177L8.08571 0.135732C7.99815 0.0480316 7.88144 0 7.75684 0C7.63245 0 7.51573 0.0480316 7.42817 0.135732L4.25014 3.3139L1.07197 0.135732C0.984549 0.0480316 0.86776 0 0.743232 0C0.618841 0 0.502053 0.0480316 0.414634 0.135732L0.136 0.414177C-0.0453333 0.595522 -0.0453333 0.890485 0.136 1.07162L3.3141 4.25L0.136 7.42824C0.0485122 7.51587 0.000345528 7.6326 0.000345528 7.75707C0.000345528 7.88153 0.0485122 7.99826 0.136 8.08582L0.414565 8.36427C0.501984 8.4519 0.618841 8.5 0.743163 8.5C0.867691 8.5 0.98448 8.4519 1.0719 8.36427L4.25007 5.18603L7.4281 8.36427C7.51566 8.4519 7.63238 8.5 7.75677 8.5H7.75691C7.88137 8.5 7.99809 8.4519 8.08564 8.36427L8.36414 8.08582C8.45156 7.99833 8.49979 7.88153 8.49979 7.75707C8.49979 7.6326 8.45156 7.51587 8.36414 7.42831L5.18617 4.25Z" fill="#2C3E50"/>
</svg>
