<?xml version="1.0" standalone="no"?>
<!DOCTYPE svg PUBLIC "-//W3C//DTD SVG 20010904//EN"
 "http://www.w3.org/TR/2001/REC-SVG-20010904/DTD/svg10.dtd">
<svg version="1.0" xmlns="http://www.w3.org/2000/svg"
 width="512.000000pt" height="512.000000pt" viewBox="0 0 512.000000 512.000000"
 preserveAspectRatio="xMidYMid meet">

<g transform="translate(0.000000,512.000000) scale(0.100000,-0.100000)"
fill="#444444" stroke="none">
<path d="M2330 5110 c-494 -48 -950 -230 -1350 -538 -195 -150 -448 -432 -594
-662 -63 -99 -186 -351 -230 -471 -49 -134 -102 -340 -128 -499 -31 -195 -31
-565 0 -760 45 -276 116 -498 237 -745 132 -269 269 -460 489 -681 221 -220
412 -357 681 -489 247 -121 469 -192 745 -237 195 -31 565 -31 760 0 276 45
498 116 745 237 269 132 460 269 681 489 220 221 357 412 489 681 88 179 132
296 180 476 63 240 78 371 78 649 0 278 -15 409 -78 649 -48 180 -92 297 -180
476 -132 269 -269 460 -489 681 -221 220 -412 357 -681 489 -246 121 -474 193
-740 235 -147 23 -475 34 -615 20z m508 -475 c707 -99 1309 -540 1614 -1183
137 -288 198 -564 198 -892 0 -191 -16 -329 -59 -506 -182 -741 -784 -1343
-1525 -1525 -177 -43 -315 -59 -506 -59 -191 0 -329 16 -506 59 -741 182
-1343 784 -1525 1525 -43 177 -59 315 -59 506 0 191 16 329 59 506 182 742
784 1344 1527 1525 67 16 164 36 215 43 131 19 432 20 567 1z"/>
<path d="M3616 3523 c-11 -3 -36 -16 -55 -28 -20 -13 -333 -321 -696 -684
l-660 -661 -315 314 c-173 172 -329 321 -345 329 -139 70 -303 -9 -336 -162
-9 -41 -8 -61 6 -108 16 -57 25 -66 428 -471 227 -227 427 -422 445 -433 19
-12 58 -23 92 -26 121 -11 74 -52 913 786 417 416 768 772 782 791 54 78 52
190 -5 268 -51 71 -163 108 -254 85z"/>
</g>
</svg>
