<?xml version="1.0" standalone="no"?>
<!DOCTYPE svg PUBLIC "-//W3C//DTD SVG 20010904//EN"
 "http://www.w3.org/TR/2001/REC-SVG-20010904/DTD/svg10.dtd">
<svg version="1.0" xmlns="http://www.w3.org/2000/svg"
 width="50.000000pt" height="50.000000pt" viewBox="0 0 50.000000 50.000000"
 preserveAspectRatio="xMidYMid meet">

<g transform="translate(0.000000,50.000000) scale(0.100000,-0.100000)"
fill="#000000" stroke="none">
<path d="M113 460 c-82 -49 -36 -159 67 -160 19 -1 46 -7 60 -15 35 -20 90
-18 127 5 82 49 36 159 -67 160 -19 1 -46 7 -60 15 -35 20 -90 18 -127 -5z
m132 -25 c30 -29 32 -55 6 -86 -25 -31 -108 -34 -140 -5 -48 44 -5 116 69 116
30 0 47 -6 65 -25z m120 -30 c30 -29 32 -55 6 -86 -16 -20 -29 -24 -69 -24
-28 0 -53 3 -57 6 -3 4 6 19 20 34 21 21 26 33 23 61 -4 32 -2 34 24 34 17 0
39 -10 53 -25z"/>
<path d="M30 305 c-10 -12 -10 -18 0 -30 7 -8 18 -15 25 -15 7 0 18 7 25 15
10 12 10 18 0 30 -7 8 -18 15 -25 15 -7 0 -18 -7 -25 -15z m40 -15 c0 -5 -7
-10 -15 -10 -8 0 -15 5 -15 10 0 6 7 10 15 10 8 0 15 -4 15 -10z"/>
<path d="M420 305 c-10 -12 -10 -18 0 -30 7 -8 18 -15 25 -15 7 0 18 7 25 15
10 12 10 18 0 30 -7 8 -18 15 -25 15 -7 0 -18 -7 -25 -15z m40 -15 c0 -5 -7
-10 -15 -10 -8 0 -15 5 -15 10 0 6 7 10 15 10 8 0 15 -4 15 -10z"/>
<path d="M92 244 c-16 -11 -22 -25 -22 -54 0 -21 5 -42 10 -45 15 -9 12 -55
-3 -55 -18 0 -57 -38 -57 -55 0 -13 35 -15 231 -15 214 0 230 1 227 17 -2 10
-20 29 -41 42 -37 24 -46 48 -26 68 6 6 9 27 7 47 -2 28 -10 42 -31 54 -25 15
-30 15 -55 2 -21 -12 -28 -24 -30 -54 -2 -21 1 -43 7 -49 15 -15 14 -57 -2
-57 -7 0 -23 -9 -34 -20 -22 -20 -22 -20 -62 7 -39 25 -52 55 -31 68 5 3 10
23 10 44 0 30 -6 42 -25 55 -30 20 -45 20 -73 0z m59 -14 c23 -13 25 -50 4
-90 -18 -35 -11 -58 21 -66 13 -3 28 -12 35 -20 10 -12 -2 -14 -75 -14 -89 0
-107 9 -57 30 38 15 45 34 26 70 -18 35 -19 72 -3 88 15 15 24 15 49 2z m230
0 c23 -13 25 -50 4 -90 -18 -35 -11 -58 21 -66 13 -3 28 -12 35 -20 10 -12 -2
-14 -75 -14 -89 0 -107 9 -57 30 38 15 45 34 26 70 -18 35 -19 72 -3 88 15 15
24 15 49 2z"/>
<path d="M20 225 c0 -8 7 -15 15 -15 8 0 15 7 15 15 0 8 -7 15 -15 15 -8 0
-15 -7 -15 -15z"/>
<path d="M450 225 c0 -8 7 -15 15 -15 8 0 15 7 15 15 0 8 -7 15 -15 15 -8 0
-15 -7 -15 -15z"/>
</g>
</svg>
