<?xml version="1.0" standalone="no"?>
<!DOCTYPE svg PUBLIC "-//W3C//DTD SVG 20010904//EN"
 "http://www.w3.org/TR/2001/REC-SVG-20010904/DTD/svg10.dtd">
<svg version="1.0" xmlns="http://www.w3.org/2000/svg"
 width="512.000000pt" height="512.000000pt" viewBox="0 0 512.000000 512.000000"
 preserveAspectRatio="xMidYMid meet">

<g transform="translate(0.000000,512.000000) scale(0.100000,-0.100000)"
fill="#fff" stroke="none">
<path d="M78 5099 c-23 -12 -46 -35 -58 -59 -20 -39 -20 -54 -20 -2480 0
-2427 0 -2441 20 -2480 13 -26 34 -47 60 -60 39 -20 53 -20 2480 -20 2427 0
2441 0 2480 20 26 13 47 34 60 60 20 39 20 53 20 2480 0 2427 0 2441 -20 2480
-13 26 -34 47 -60 60 -39 20 -53 20 -2482 20 -2413 -1 -2443 -1 -2480 -21z
m2932 -434 l0 -155 -1355 0 -1355 0 0 155 0 155 1355 0 1355 0 0 -155z m600 0
l0 -155 -150 0 -150 0 0 155 0 155 150 0 150 0 0 -155z m600 0 l0 -155 -150 0
-150 0 0 155 0 155 150 0 150 0 0 -155z m610 0 l0 -155 -155 0 -155 0 0 155 0
155 155 0 155 0 0 -155z m-2410 -2410 l0 -1955 -1055 0 -1055 0 0 1955 0 1955
1055 0 1055 0 0 -1955z m2410 0 l0 -1955 -1055 0 -1055 0 0 1955 0 1955 1055
0 1055 0 0 -1955z"/>
<path d="M1321 3900 c-38 -9 -77 -35 -102 -71 -10 -13 -122 -298 -250 -633
-251 -663 -249 -655 -200 -724 27 -39 98 -67 146 -58 51 10 101 58 125 122 11
30 29 79 41 109 l20 55 259 0 259 0 20 -55 c12 -30 30 -79 41 -109 39 -101
118 -145 205 -111 63 23 90 65 89 135 0 47 -34 145 -227 652 -124 328 -234
609 -243 623 -32 48 -119 79 -183 65z m113 -711 c36 -96 66 -179 66 -182 0 -4
-63 -7 -140 -7 -77 0 -140 2 -140 5 0 7 129 345 136 357 3 5 7 8 9 6 2 -2 33
-82 69 -179z"/>
<path d="M689 2088 c-43 -24 -79 -83 -79 -128 0 -46 36 -104 80 -129 37 -21
45 -21 669 -21 608 0 633 1 670 20 41 21 81 85 81 130 0 45 -40 109 -81 130
-37 19 -61 20 -671 20 -626 0 -633 -1 -669 -22z"/>
<path d="M689 1488 c-43 -24 -79 -83 -79 -128 0 -46 36 -104 80 -129 37 -21
45 -21 669 -21 608 0 633 1 670 20 41 21 81 85 81 130 0 45 -40 109 -81 130
-37 19 -61 20 -671 20 -626 0 -633 -1 -669 -22z"/>
<path d="M689 888 c-43 -24 -79 -83 -79 -128 0 -46 36 -104 80 -129 37 -21 45
-21 669 -21 608 0 633 1 670 20 41 21 81 85 81 130 0 45 -40 109 -81 130 -37
19 -61 20 -671 20 -626 0 -633 -1 -669 -22z"/>
<path d="M3345 3895 c-22 -8 -41 -15 -42 -15 -1 0 -14 -17 -28 -37 l-25 -38 0
-646 0 -646 23 -34 c43 -65 64 -69 328 -69 261 0 314 7 406 50 260 121 349
469 179 698 -24 31 -52 65 -64 76 l-21 18 24 48 c123 243 -34 548 -309 599
-90 17 -422 14 -471 -4z m451 -304 c64 -29 90 -100 59 -161 -31 -61 -56 -70
-186 -70 l-119 0 0 125 0 125 103 0 c78 0 112 -5 143 -19z m74 -550 c14 -7 36
-23 48 -35 81 -72 70 -204 -21 -264 -39 -26 -47 -27 -194 -30 l-153 -3 0 176
0 177 148 -4 c97 -2 156 -8 172 -17z"/>
<path d="M3087 2088 c-39 -23 -77 -86 -77 -128 0 -44 38 -105 79 -128 39 -22
40 -22 670 -22 613 0 633 1 671 20 45 23 80 80 80 130 0 50 -35 107 -80 130
-38 19 -57 20 -672 20 -632 0 -633 0 -671 -22z"/>
<path d="M3087 1488 c-39 -23 -77 -86 -77 -128 0 -44 38 -105 79 -128 39 -22
40 -22 670 -22 613 0 633 1 671 20 45 23 80 80 80 130 0 50 -35 107 -80 130
-38 19 -57 20 -672 20 -632 0 -633 0 -671 -22z"/>
<path d="M3087 888 c-39 -23 -77 -86 -77 -128 0 -44 38 -105 79 -128 39 -22
40 -22 670 -22 613 0 633 1 671 20 45 23 80 80 80 130 0 50 -35 107 -80 130
-38 19 -57 20 -672 20 -632 0 -633 0 -671 -22z"/>
</g>
</svg>
