<svg width="30" height="22" viewBox="0 0 30 22" fill="none" xmlns="http://www.w3.org/2000/svg">
<path fill-rule="evenodd" clip-rule="evenodd" d="M1.37578 7.80879L28.3477 0.305664L29.8133 1.46504V20.2775L28.3477 21.4369L15.028 17.9479C14.881 18.559 14.6135 19.1347 14.2413 19.6412C13.8691 20.1476 13.3995 20.5748 12.8601 20.8975C12.3207 21.2203 11.7224 21.4322 11.1001 21.5208C10.4778 21.6094 9.84409 21.573 9.23606 21.4136C8.62803 21.2543 8.0579 20.9752 7.55907 20.5927C7.06024 20.2103 6.64273 19.7321 6.331 19.1863C6.01926 18.6405 5.81956 18.038 5.7436 17.414C5.66763 16.7901 5.71693 16.1572 5.8886 15.5525L1.37578 14.3713L0.457031 13.2119V8.96816L1.37578 7.80879ZM7.95141 16.0929C7.90312 16.2656 7.87378 16.4431 7.86391 16.6222C7.86282 17.2353 8.08183 17.8284 8.4811 18.2936C8.88037 18.7588 9.43337 19.0653 10.0395 19.1572C10.6456 19.2491 11.2646 19.1204 11.7839 18.7945C12.3032 18.4686 12.6882 17.9671 12.8689 17.3813L7.95141 16.0929ZM2.64453 12.2932L27.6258 18.8775V2.84316L2.64453 9.88691V12.2932Z" fill="white"/>
</svg>
