<svg width="20" height="21" viewBox="0 0 20 21" fill="none" xmlns="http://www.w3.org/2000/svg">
<path d="M10.0293 9.96C10.1074 9.88675 10.1855 9.90628 10.2637 9.96C10.1855 9.96 10.1074 9.96 10.0293 9.96Z" fill="#1A5CBE"/>
<path d="M10.4199 9.9599C10.4932 9.89154 10.5811 9.92572 10.6592 9.92572C10.6543 9.93549 10.6543 9.95013 10.6543 9.9599C10.5762 9.9599 10.498 9.9599 10.4199 9.9599Z" fill="#1A5CBE"/>
<path d="M16.9531 6.0487C16.7041 4.21276 15.8447 2.6942 14.3848 1.56627C12.1875 -0.132944 9.76075 -0.440561 7.18751 0.599478C4.71681 1.60045 2.99806 4.19323 2.96876 6.85436C2.94923 8.66588 3.50099 10.2674 4.68751 11.6395C5.51271 12.5965 5.93751 13.6952 5.89845 14.9598C5.88868 15.2528 5.88868 15.5458 5.89845 15.8387C5.91798 16.6151 6.27443 17.1766 6.98732 17.4891C7.09474 17.538 7.12403 17.6063 7.14845 17.7088C7.41212 18.7538 8.04689 19.4764 9.05763 19.8573C9.23341 19.9256 9.42384 19.9647 9.6045 20.0184H9.68263C9.76075 19.9842 9.83888 19.9842 9.917 20.0184H10.0733C10.1416 19.9696 10.2246 20.0184 10.2979 19.9891C10.3027 19.9891 10.3076 19.9842 10.3125 19.9842C10.3906 19.9794 10.4688 19.9842 10.5469 19.9647C11.7725 19.6669 12.5391 18.91 12.8467 17.6844C12.8711 17.5965 12.8955 17.5379 12.9883 17.4989C13.7305 17.1766 14.082 16.5956 14.0918 15.7948C14.0967 15.4432 14.0918 15.0917 14.0918 14.7401C14.0918 14.2762 14.1699 13.8221 14.3067 13.3778C14.5313 12.6551 14.9609 12.0594 15.4297 11.4784C16.7188 9.89147 17.2266 8.07506 16.9531 6.0487ZM10 18.8465C9.27735 18.8465 8.57423 18.329 8.36427 17.6454H11.6309C11.4258 18.3241 10.7178 18.8465 10 18.8465ZM12.9297 15.5116C12.915 15.619 12.9297 15.7313 12.9248 15.8436C12.915 16.2245 12.6807 16.4637 12.2998 16.4637C11.3184 16.4686 10.3369 16.4637 9.35548 16.4637C8.81837 16.4637 8.27638 16.4637 7.73439 16.4637C7.29982 16.4637 7.06544 16.2342 7.06544 15.8094C7.06544 15.6434 6.9922 15.4139 7.09474 15.326C7.19239 15.243 7.417 15.2967 7.58302 15.2967C8.38868 15.2967 9.19435 15.2967 10 15.2967C10.9033 15.2967 11.8067 15.3016 12.71 15.2919C12.9053 15.2821 12.9492 15.3407 12.9297 15.5116ZM14.5361 10.7313C13.9356 11.4784 13.4082 12.2547 13.1494 13.1874C13.0811 13.4315 13.0127 13.6756 12.9932 13.9296C12.9785 14.076 12.9297 14.1249 12.7686 14.1249C11.8457 14.1151 10.918 14.12 9.99513 14.12C9.06251 14.12 8.13478 14.1151 7.20216 14.1249C7.07032 14.1249 7.03126 14.0907 7.01173 13.9637C6.84571 12.7772 6.32325 11.7616 5.55177 10.8534C3.24708 8.12877 3.81349 4.10534 6.78712 2.13756C7.87599 1.41491 9.09181 1.11706 10.4004 1.21471C11.8457 1.32213 13.0908 1.88366 14.1211 2.8944C15.0293 3.78795 15.5859 4.87194 15.7813 6.1317C16.0352 7.84557 15.625 9.38366 14.5361 10.7313Z" fill="#1A5CBE"/>
<path d="M0 7.47955C0.15625 7.14752 0.415039 7.02056 0.78125 7.04498C1.09863 7.06451 1.41602 7.04498 1.7334 7.04986C2.08008 7.05474 2.33887 7.29888 2.34375 7.62603C2.34863 7.95806 2.08984 8.21685 1.7334 8.22174C1.41602 8.22662 1.09863 8.20709 0.78125 8.22662C0.419922 8.25103 0.15625 8.12408 0 7.79205C0 7.68951 0 7.58209 0 7.47955Z" fill="#1A5CBE"/>
<path d="M19.9999 7.79205C19.8437 8.12408 19.5849 8.25103 19.2187 8.22662C18.9062 8.20709 18.5937 8.22662 18.2861 8.22174C17.915 8.21685 17.6513 7.96783 17.6562 7.62603C17.6611 7.294 17.9199 7.05474 18.2861 7.04986C18.5986 7.04498 18.9111 7.06451 19.2187 7.04498C19.58 7.02056 19.8437 7.14752 19.9999 7.47955C19.9999 7.58209 19.9999 7.68951 19.9999 7.79205Z" fill="#1A5CBE"/>
<path d="M2.16797 4.5498C2.16309 4.75488 2.06544 4.94042 1.85547 5.04785C1.64063 5.15527 1.41602 5.16015 1.23536 4.99413C0.913092 4.69628 0.595709 4.38378 0.297857 4.06152C0.0927794 3.83691 0.131842 3.49511 0.346686 3.28515C0.556646 3.08007 0.898443 3.05566 1.12305 3.26074C1.43067 3.54394 1.72364 3.85156 2.02149 4.15429C2.12403 4.25195 2.16309 4.38378 2.16797 4.5498Z" fill="#1A5CBE"/>
<path d="M19.2383 3.11896C19.4678 3.12872 19.6534 3.22638 19.7608 3.43634C19.8682 3.6463 19.8633 3.86603 19.7168 4.04181C19.4239 4.38849 19.0967 4.71075 18.7549 5.00372C18.5401 5.18439 18.2081 5.14532 18.0079 4.95001C17.8077 4.74982 17.7588 4.42267 17.9395 4.20294C18.2374 3.85138 18.5694 3.534 18.9112 3.22638C18.9991 3.14337 19.1211 3.12872 19.2383 3.11896Z" fill="#1A5CBE"/>
<path d="M0.756867 12.1474C0.522492 12.1376 0.341828 12.0351 0.239289 11.8251C0.13675 11.6151 0.13675 11.3954 0.288117 11.2196C0.585969 10.8778 0.903351 10.5507 1.25003 10.2577C1.46487 10.0771 1.79691 10.121 1.9971 10.3163C2.1973 10.5165 2.24124 10.8437 2.06058 11.0634C1.76273 11.415 1.4307 11.7323 1.08402 12.04C0.996125 12.123 0.874055 12.1425 0.756867 12.1474Z" fill="#1A5CBE"/>
<path d="M19.8243 11.5661C19.8096 11.7956 19.712 11.9812 19.502 12.0837C19.292 12.1862 19.0723 12.1814 18.8965 12.03C18.5596 11.737 18.2374 11.4196 17.9493 11.0827C17.754 10.8532 17.7979 10.5114 18.0128 10.3064C18.2227 10.1111 18.5547 10.0866 18.7745 10.2868C19.087 10.5749 19.3848 10.8874 19.6827 11.1902C19.7901 11.2927 19.8194 11.4294 19.8243 11.5661Z" fill="#1A5CBE"/>
<path d="M10.1709 2.36224C12.3437 2.4599 14.1601 4.00287 14.5947 6.12201C14.6533 6.41009 14.6826 6.70306 14.6875 6.99603C14.6923 7.35736 14.4531 7.62591 14.1162 7.63568C13.7841 7.64544 13.5253 7.39154 13.5156 7.03021C13.4765 5.84857 12.9931 4.90131 12.041 4.19818C11.4941 3.79291 10.8691 3.58783 10.1953 3.54388C10.1171 3.539 10.039 3.539 9.96089 3.53412C9.63863 3.50482 9.40913 3.24603 9.41402 2.93353C9.42378 2.62103 9.67281 2.37689 9.99507 2.36713C10.0537 2.36224 10.1123 2.36224 10.1709 2.36224Z" fill="#1A5CBE"/>
</svg>
