<?xml version="1.0" standalone="no"?>
<!DOCTYPE svg PUBLIC "-//W3C//DTD SVG 20010904//EN"
 "http://www.w3.org/TR/2001/REC-SVG-20010904/DTD/svg10.dtd">
<svg version="1.0" xmlns="http://www.w3.org/2000/svg"
 width="512.000000pt" height="512.000000pt" viewBox="0 0 512.000000 512.000000"
 preserveAspectRatio="xMidYMid meet">

<g transform="translate(0.000000,512.000000) scale(0.100000,-0.100000)"
fill="#ffffff" stroke="none">
<path d="M1660 4844 c-738 -43 -1255 -142 -1503 -287 -60 -36 -133 -117 -146
-163 -7 -24 -11 -159 -11 -354 0 -309 1 -316 23 -365 47 -101 184 -194 397
-269 68 -24 95 -38 94 -50 0 -9 -1 -153 -2 -320 l-2 -303 -102 -32 c-222 -69
-370 -169 -397 -267 -7 -24 -11 -159 -11 -359 0 -294 2 -323 20 -362 25 -56
91 -119 176 -167 l69 -39 -3 -336 c-2 -185 0 -350 3 -368 8 -42 72 -123 129
-162 275 -189 914 -327 1726 -372 239 -13 863 -7 1070 11 861 72 1462 235
1618 438 52 68 52 70 52 429 0 319 -1 339 -21 379 -27 58 -84 107 -174 152
-58 28 -74 40 -68 52 4 8 10 152 13 319 l5 303 90 32 c193 69 342 167 391 257
17 31 19 65 22 361 2 222 -1 341 -8 370 -27 100 -183 204 -407 270 -109 32
-112 34 -105 58 4 14 7 174 7 355 0 321 -1 331 -22 371 -102 191 -540 323
-1298 394 -437 40 -1165 51 -1625 24z m1435 -178 c639 -48 1134 -151 1295
-267 53 -39 53 -66 -1 -113 -129 -110 -585 -236 -1089 -300 -337 -44 -473 -51
-995 -51 -522 0 -657 7 -995 51 -583 74 -1064 221 -1130 344 -21 40 79 109
230 158 252 83 738 157 1185 182 105 6 208 12 230 14 109 10 1085 -3 1270 -18z
m-2761 -637 l91 -38 3 -200 c2 -168 0 -201 -12 -201 -29 0 -195 91 -220 121
-26 30 -26 31 -26 216 l0 185 37 -23 c20 -13 77 -40 127 -60z m4104 -114 l-3
-185 -30 -24 c-33 -27 -167 -100 -203 -111 l-22 -6 2 201 3 202 80 32 c44 18
96 43 115 54 62 39 62 41 58 -163z m-3718 -5 c52 -11 103 -23 113 -26 15 -5
17 -24 17 -213 l0 -208 -125 31 -125 30 0 208 c0 161 3 206 13 203 6 -2 55
-13 107 -25z m3288 -177 l-3 -207 -110 -28 c-60 -15 -118 -28 -127 -28 -17 0
-18 16 -18 204 l0 204 123 30 c67 16 125 30 130 31 4 1 6 -92 5 -206z m-2848
99 l115 -17 3 -213 2 -213 -32 5 c-18 3 -62 10 -98 16 -36 6 -80 13 -97 16
l-33 5 0 209 c0 162 3 210 13 209 6 0 64 -8 127 -17z m2420 -191 l0 -209 -27
-6 c-16 -3 -64 -10 -108 -16 -44 -6 -88 -14 -98 -16 -16 -5 -17 8 -15 208 l3
213 110 16 c61 9 116 17 123 18 9 1 12 -47 12 -208z m-1877 132 c4 -2 7 -99 7
-215 l0 -211 -57 6 c-32 4 -91 9 -130 13 l-73 7 0 209 0 210 123 -7 c67 -4
125 -9 130 -12z m1457 -192 l0 -208 -72 -7 c-40 -4 -99 -9 -131 -13 l-57 -6 2
214 3 214 65 6 c36 3 93 6 128 7 l62 2 0 -209z m-942 -38 l2 -213 -72 0 c-40
0 -117 3 -170 7 l-98 6 0 209 0 208 168 -2 167 -3 3 -212z m512 8 l0 -208 -61
-7 c-34 -3 -111 -6 -170 -6 l-109 0 0 215 0 215 170 0 170 0 0 -209z m1831
-46 c184 -46 317 -104 367 -158 30 -32 20 -54 -42 -96 -219 -151 -814 -281
-1521 -333 -218 -16 -880 -16 -1100 0 -608 45 -1114 142 -1400 269 -113 51
-191 110 -171 130 2 2 86 -12 187 -31 507 -97 972 -133 1579 -123 840 14 1553
134 1912 322 46 24 85 44 88 44 3 1 48 -10 101 -24z m-3793 -464 c42 -21 98
-46 125 -56 l47 -18 0 -203 0 -204 -57 26 c-85 37 -143 73 -175 108 l-28 30 0
178 c0 98 2 178 5 178 3 0 40 -17 83 -39z m4182 -145 l0 -184 -42 -37 c-33
-31 -189 -115 -212 -115 -3 0 -6 92 -6 204 l0 203 83 32 c45 18 100 43 122 57
22 13 43 24 48 24 4 0 7 -83 7 -184z m-3675 -19 l90 -22 3 -195 c1 -107 0
-200 -2 -206 -3 -8 -41 -3 -130 19 l-126 31 0 204 0 204 38 -7 c20 -3 78 -16
127 -28z m3245 -172 l0 -204 -37 -10 c-43 -11 -144 -36 -185 -45 l-28 -6 0
208 0 209 108 25 c59 14 115 26 125 27 16 1 17 -15 17 -204z m-2840 100 c52
-8 98 -15 103 -15 4 0 7 -95 7 -211 l0 -210 -52 6 c-29 4 -84 12 -123 18 l-70
12 -3 208 -2 207 22 0 c13 0 66 -7 118 -15z m2418 -192 l-3 -208 -105 -17
c-58 -9 -115 -17 -127 -17 l-23 -1 0 210 c0 161 3 210 13 211 6 0 48 6 92 14
44 7 97 13 118 14 l37 1 -2 -207z m-1930 141 l52 -6 0 -211 0 -210 -116 7
c-64 4 -123 10 -130 13 -11 4 -14 46 -14 215 l0 210 78 -6 c42 -4 101 -9 130
-12z m1502 -193 c0 -244 19 -216 -152 -227 l-108 -7 0 211 0 210 63 6 c34 3
78 8 97 9 19 2 50 5 68 5 l32 2 0 -209z m-1062 172 l122 -6 0 -209 0 -208
-170 0 -170 0 0 215 0 215 48 0 c27 0 104 -3 170 -7z m632 -208 l0 -215 -170
0 -170 0 0 210 0 209 83 4 c45 1 121 4 170 5 l87 2 0 -215z m-2600 4 c421
-316 1837 -478 3058 -348 194 20 394 49 512 74 87 18 92 18 57 -1 -106 -58
-430 -145 -712 -193 -806 -135 -1813 -129 -2585 15 -415 78 -747 200 -788 289
-9 20 -7 28 16 51 15 15 60 43 101 62 70 34 238 90 271 91 9 1 40 -18 70 -40z
m-382 -428 c42 -21 98 -46 125 -56 l47 -18 0 -198 c0 -184 -1 -199 -18 -199
-31 0 -158 67 -201 105 l-41 37 0 184 c0 101 2 184 5 184 3 0 40 -17 83 -39z
m4182 -130 c0 -93 -4 -180 -9 -193 -12 -31 -84 -81 -176 -123 l-75 -34 0 203
0 204 78 31 c42 18 97 43 122 56 25 13 48 24 53 25 4 0 7 -76 7 -169z m-3677
-33 l87 -20 0 -209 c0 -162 -3 -208 -12 -205 -7 3 -64 16 -125 31 l-113 27 0
205 0 205 38 -7 c20 -4 76 -16 125 -27z m3247 -172 l0 -203 -122 -30 c-68 -16
-126 -27 -131 -23 -4 3 -6 96 -5 206 l3 199 105 27 c58 14 115 26 128 27 l22
1 0 -204z m-2762 89 l32 -6 0 -209 c0 -116 -3 -210 -6 -210 -10 0 -207 30
-231 36 -23 4 -23 5 -23 208 0 111 2 205 5 208 4 4 126 -11 223 -27z m2325
-385 c-5 -4 -48 -13 -98 -19 -49 -7 -102 -15 -117 -18 l-28 -5 0 210 0 211 33
6 c17 3 73 11 122 18 l90 12 3 -204 c1 -113 -1 -208 -5 -211z m-1905 343 l42
-5 0 -210 0 -211 -102 7 c-57 4 -115 9 -130 12 l-28 6 0 210 0 210 88 -6 c48
-4 106 -9 130 -13z m1492 -192 l0 -208 -28 -6 c-16 -3 -75 -9 -130 -13 l-102
-7 0 211 0 211 43 5 c46 7 109 12 175 14 l42 2 0 -209z m-1032 173 l92 -7 0
-208 0 -209 -154 0 c-85 0 -161 3 -170 6 -14 5 -16 34 -16 215 l0 209 78 0
c44 0 120 -3 170 -6z m602 -203 c0 -181 -2 -210 -16 -215 -9 -3 -85 -6 -170
-6 l-154 0 0 210 0 209 63 4 c34 2 110 4 170 5 l107 2 0 -209z m1846 -58 c86
-41 119 -72 109 -103 -29 -90 -418 -230 -850 -304 -892 -153 -2072 -128 -2835
59 -301 74 -524 168 -560 234 -9 17 -3 17 68 -6 258 -83 748 -164 1152 -192
282 -20 362 -22 647 -22 863 1 1627 116 2028 306 50 23 99 50 110 58 24 19 36
16 131 -30z m-4086 -359 c25 -14 77 -39 115 -54 l70 -28 3 -206 2 -206 -77 36
c-73 33 -121 63 -157 100 -13 13 -16 45 -16 200 0 101 3 184 8 184 4 0 27 -12
52 -26z m4200 -158 c0 -155 -3 -187 -16 -200 -36 -37 -84 -67 -157 -100 l-77
-36 2 206 3 206 70 28 c39 15 90 40 115 54 25 14 48 26 53 26 4 0 7 -83 7
-184z m-3692 -12 l112 -26 0 -208 0 -208 -127 32 -128 32 -3 202 c-2 188 -1
202 15 202 10 0 69 -12 131 -26z m3270 -176 l-3 -202 -127 -32 -128 -32 0 208
0 208 103 25 c56 14 114 25 130 26 l27 1 -2 -202z m-2863 102 c44 -6 92 -13
108 -16 l27 -6 0 -209 c0 -115 -2 -209 -5 -209 -8 0 -198 30 -227 36 l-28 6 0
209 0 209 23 -4 c12 -3 58 -10 102 -16z m2435 -189 l0 -209 -27 -6 c-30 -6
-220 -36 -228 -36 -5 0 -7 419 -2 421 1 0 56 8 122 18 66 10 123 19 128 20 4
0 7 -93 7 -208z m-1897 133 c15 -5 17 -24 17 -216 l0 -211 -82 7 c-46 4 -102
9 -125 12 l-43 6 0 210 0 210 108 -7 c59 -4 115 -9 125 -11z m1467 -193 l0
-209 -47 -6 c-27 -3 -83 -8 -125 -12 l-78 -6 0 211 c0 210 0 211 23 216 22 5
85 9 180 13 l47 2 0 -209z m-1001 173 l61 -7 0 -208 0 -209 -109 0 c-59 0
-136 3 -170 6 l-61 7 0 208 0 209 109 0 c59 0 136 -3 170 -6z m581 -203 l0
-208 -61 -7 c-34 -3 -111 -6 -170 -6 l-109 0 0 209 0 210 38 4 c20 2 97 4 170
5 l132 2 0 -209z"/>
</g>
</svg>
