<svg width="28" height="35" viewBox="0 0 28 35" fill="none" xmlns="http://www.w3.org/2000/svg">
<path d="M26.8911 32.7419H24.6733V5.08065C24.6733 4.45714 24.1768 3.95161 23.5644 3.95161H15.2475V1.12903C15.2475 0.505524 14.7511 0 14.1386 0H6.44554C5.83315 0 5.33663 0.505524 5.33663 1.12903V3.95161H4.43564C3.82325 3.95161 3.32673 4.45714 3.32673 5.08065V32.7419H1.10891C0.496515 32.7419 0 33.2475 0 33.871C0 34.4945 0.496515 35 1.10891 35H26.8911C27.5036 35 28 34.4945 28 33.871C28 33.2475 27.5036 32.7419 26.8911 32.7419ZM7.55446 2.25806H13.0297V3.95161H7.55446V2.25806ZM11.7822 32.7419V27.9435H16.2178V32.7419H11.7822ZM18.4356 32.7419V27.9435H18.9208C19.5333 27.9435 20.0297 27.438 20.0297 26.8145C20.0297 26.191 19.5333 25.6855 18.9208 25.6855C15.0636 25.6855 12.6518 25.6855 9.07921 25.6855C8.46681 25.6855 7.9703 26.191 7.9703 26.8145C7.9703 27.438 8.46681 27.9435 9.07921 27.9435H9.56436V32.7419H5.54455V6.20968H22.4554V32.7419H18.4356ZM12.4059 9.52621C12.4059 10.1497 11.9094 10.6552 11.297 10.6552H10.0495C9.43711 10.6552 8.94059 10.1497 8.94059 9.52621C8.94059 8.9027 9.43711 8.39718 10.0495 8.39718H11.297C11.9094 8.39718 12.4059 8.9027 12.4059 9.52621ZM18.9901 9.52621C18.9901 10.1497 18.4937 10.6552 17.8812 10.6552H16.6337C16.0212 10.6552 15.5248 10.1497 15.5248 9.52621C15.5248 8.9027 16.0212 8.39718 16.6337 8.39718H17.8812C18.4937 8.39718 18.9901 8.9027 18.9901 9.52621ZM12.4059 13.7601C12.4059 14.3836 11.9094 14.8891 11.297 14.8891H10.0495C9.43711 14.8891 8.94059 14.3836 8.94059 13.7601C8.94059 13.1366 9.43711 12.631 10.0495 12.631H11.297C11.9094 12.631 12.4059 13.1366 12.4059 13.7601ZM18.9901 13.7601C18.9901 14.3836 18.4937 14.8891 17.8812 14.8891H16.6337C16.0212 14.8891 15.5248 14.3836 15.5248 13.7601C15.5248 13.1366 16.0212 12.631 16.6337 12.631H17.8812C18.4937 12.631 18.9901 13.1366 18.9901 13.7601ZM12.4059 17.994C12.4059 18.6175 11.9094 19.123 11.297 19.123H10.0495C9.43711 19.123 8.94059 18.6175 8.94059 17.994C8.94059 17.3704 9.43711 16.8649 10.0495 16.8649H11.297C11.9094 16.8649 12.4059 17.3704 12.4059 17.994ZM18.9901 17.994C18.9901 18.6175 18.4937 19.123 17.8812 19.123H16.6337C16.0212 19.123 15.5248 18.6175 15.5248 17.994C15.5248 17.3704 16.0212 16.8649 16.6337 16.8649H17.8812C18.4937 16.8649 18.9901 17.3704 18.9901 17.994ZM12.4059 22.2278C12.4059 22.8513 11.9094 23.3569 11.297 23.3569H10.0495C9.43711 23.3569 8.94059 22.8513 8.94059 22.2278C8.94059 21.6043 9.43711 21.0988 10.0495 21.0988H11.297C11.9094 21.0988 12.4059 21.6043 12.4059 22.2278ZM18.9901 22.2278C18.9901 22.8513 18.4937 23.3569 17.8812 23.3569H16.6337C16.0212 23.3569 15.5248 22.8513 15.5248 22.2278C15.5248 21.6043 16.0212 21.0988 16.6337 21.0988H17.8812C18.4937 21.0988 18.9901 21.6043 18.9901 22.2278Z" fill="white"/>
</svg>
