<svg width="31" height="27" viewBox="0 0 31 27" fill="none" xmlns="http://www.w3.org/2000/svg">
<path d="M28.0238 0H2.70036C1.21138 0 0 1.13552 0 2.53125V19.4063C0 20.802 1.21138 21.9375 2.70036 21.9375H5.46074V26.1563C5.46074 26.4975 5.68007 26.8052 6.01641 26.9358C6.35282 27.0663 6.73993 26.9942 6.99736 26.7528L12.1344 21.9375H28.0238C29.5128 21.9375 30.7241 20.802 30.7241 19.4063V2.53125C30.7241 1.13552 29.5128 0 28.0238 0ZM28.9239 19.4063C28.9239 19.8715 28.5201 20.25 28.0238 20.25H11.7616C11.5229 20.25 11.2939 20.3389 11.1251 20.4972L7.26098 24.1192V21.0938C7.26098 20.6278 6.85796 20.25 6.36086 20.25H2.70036C2.20404 20.25 1.80024 19.8715 1.80024 19.4063V2.53125C1.80024 2.06601 2.20404 1.6875 2.70036 1.6875H28.0238C28.5201 1.6875 28.9239 2.06601 28.9239 2.53125V19.4063Z" fill="white"/>
<path d="M22.5203 8.995C22.415 8.6868 22.1311 8.46225 21.7894 8.4168L17.9007 7.89964L16.1655 4.68186C16.0123 4.39779 15.7017 4.21875 15.3622 4.21875C15.0226 4.21875 14.712 4.39785 14.5588 4.68186L12.8236 7.89964L8.93487 8.4168C8.59319 8.46225 8.30929 8.6868 8.20403 8.99488C8.09878 9.30296 8.19077 9.64035 8.44077 9.86333L11.2417 12.3621L10.5815 15.8852C10.5224 16.2006 10.6589 16.5203 10.934 16.7103C11.209 16.9003 11.5751 16.928 11.8791 16.7818L15.3622 15.106L18.8452 16.7819C19.1492 16.9282 19.5153 16.9005 19.7903 16.7104C20.0654 16.5203 20.2019 16.2007 20.1428 15.8853L19.4826 12.3622L22.2836 9.86344C22.5335 9.64041 22.6255 9.30308 22.5203 8.995ZM17.892 11.4515C17.6737 11.6462 17.5739 11.9305 17.626 12.2087L18.0565 14.5055L15.7732 13.4069C15.6442 13.3448 15.5032 13.3138 15.3622 13.3138C15.2211 13.3138 15.0801 13.3449 14.9511 13.4069L12.6679 14.5055L13.0983 12.2087C13.1504 11.9305 13.0506 11.6462 12.8323 11.4515L11.0289 9.84268L13.5415 9.5085C13.8329 9.4698 14.0857 9.29993 14.2184 9.05378L15.3622 6.93281L16.5059 9.05378C16.6387 9.29998 16.8914 9.4698 17.1828 9.5085L19.6954 9.84268L17.892 11.4515Z" fill="white"/>
</svg>
