<svg width="29" height="30" viewBox="0 0 29 30" fill="none" xmlns="http://www.w3.org/2000/svg">
<circle cx="14.5" cy="15" r="14.5" fill="#1A5CBE"/>
<path d="M22.8018 8.7854H6.88844C6.51598 8.7854 6.21411 9.0631 6.21411 9.40575C6.21411 11.1333 7.01909 12.7825 8.42267 13.9303L11.3759 16.3451C11.888 16.7638 12.1817 17.3655 12.1817 17.9959V24.0453C12.1817 24.5397 12.7822 24.836 13.2299 24.5613L17.2083 22.1215C17.3959 22.0064 17.5086 21.8128 17.5086 21.6053V17.9959C17.5086 17.3655 17.8023 16.7638 18.3144 16.3451L21.2675 13.9303C22.671 12.7825 23.476 11.1333 23.476 9.40575C23.476 9.0631 23.1741 8.7854 22.8018 8.7854ZM20.3715 13.0029L17.4184 15.4178C16.6187 16.0719 16.1599 17.0115 16.1599 17.9958V21.2734L13.5302 22.8862V17.9959C13.5302 17.0115 13.0715 16.0719 12.2717 15.4178L9.31866 13.0031C8.37223 12.229 7.7681 11.1683 7.60636 10.026H22.0838C21.922 11.1683 21.318 12.229 20.3715 13.0029Z" fill="white"/>
</svg>
