<svg width="19" height="16" viewBox="0 0 19 16" fill="none" xmlns="http://www.w3.org/2000/svg">
<path d="M5.69253 12.5195L4.80371 13.3064C5.08673 13.6248 5.39418 13.9206 5.72334 14.1911L6.47469 13.2727C6.19445 13.0427 5.93292 12.7909 5.69253 12.5195Z" fill="white"/>
<path d="M4.52464 10.6866L3.43555 11.1542C3.60394 11.5466 3.80389 11.9247 4.03342 12.2847L5.03305 11.6495C4.8381 11.3427 4.66808 11.0207 4.52464 10.6866Z" fill="white"/>
<path d="M14.7986 1.07903C13.5802 0.3726 12.1969 0.000370341 10.7885 0C6.78268 0.00644393 3.39839 2.97299 2.86733 6.94345L0.837859 4.91398L0 5.75184L3.38165 9.13349L6.76331 5.75184L5.92545 4.91398L4.09271 6.74435C4.78906 3.0499 8.34852 0.619506 12.043 1.31586C15.7374 2.01221 18.1678 5.57167 17.4715 9.26608C16.7751 12.9605 13.2156 15.391 9.5212 14.6946C8.76389 14.5518 8.03632 14.2815 7.36948 13.8952L6.77398 14.9197C10.596 17.1356 15.4907 15.8336 17.7066 12.0116C19.9226 8.18968 18.6206 3.29496 14.7986 1.07903Z" fill="white"/>
<path d="M9.89966 2.66663V9.18463L12.5069 11.14L13.2179 10.192L11.0847 8.59208V2.66663H9.89966Z" fill="white"/>
</svg>
