<svg width="123" height="131" viewBox="0 0 123 131" fill="none" xmlns="http://www.w3.org/2000/svg">
<path fill-rule="evenodd" clip-rule="evenodd" d="M43.9698 14.3128C46.426 15.9147 53.1471 21.0954 55.3419 23.0672L68.2647 35.0175C72.7231 39.7321 77.0181 44.4892 80.9336 49.5931C83.7689 53.2889 85.8821 56.4932 88.4844 60.0045C89.2138 60.9888 91.9905 64.3446 91.2044 65.7995C90.6022 66.9141 87.1896 71.0933 86.2403 72.1012C85.737 72.6357 85.6452 72.7318 85.23 73.2622L69.847 89.5798C71.048 91.3635 83.9831 101.292 86.4375 102.913C87.1864 103.407 88.2361 104.195 89.1134 104.622C90.3464 103.782 91.4167 102.102 92.6722 101.034L97.9706 95.4779C98.5633 94.8078 99.0223 94.1972 99.6661 93.6164C100.448 92.9104 100.739 92.4901 101.365 91.7608L108.276 84.266C108.936 83.5984 109.247 83.0943 110.027 82.2689L113.409 78.3373C115.462 75.9074 122.064 68.3452 122.74 65.9478C123.735 62.4153 102.83 37.2302 96.903 30.4604L73.9224 6.46373C72.217 4.82143 67.471 1.23443 65.3696 0.405329C62.9529 -0.548271 61.7617 0.339228 59.9924 1.43163C57.3379 3.07073 45.9549 11.932 43.9698 14.3128V14.3128Z" fill="#1A5CBE"/>
<path fill-rule="evenodd" clip-rule="evenodd" d="M78.2949 115.441C76.6935 114.093 74.64 112.824 73.0138 111.6C71.2191 110.248 69.5881 108.948 67.9035 107.629C64.6443 105.077 62.3289 102.791 59.4086 100.33L53.5762 94.7169C48.3959 89.4976 41.0214 80.8139 36.928 75.0426C35.6819 73.2856 34.5222 71.4327 33.1947 69.6934C31.9424 68.0526 29.7799 65.5578 30.224 63.865C30.8716 61.3977 35.8604 55.5875 37.8871 53.3516L42.2914 48.6791C42.738 48.2704 43.0637 48.098 43.461 47.6778C44.8805 46.176 44.9666 45.9003 46.8754 44.1844L51.6165 39.8328C50.9457 38.3217 35.3809 25.8589 32.6321 24.6681C31.4404 25.7167 30.2917 27.0549 29.1128 28.1961C27.8282 29.4393 26.6961 30.5546 25.4458 31.8342C24.194 33.1151 23.296 34.0744 21.8738 35.3667L8.27841 50.5949C5.89171 53.5054 0.422007 60.5081 0.0118067 64.1108C-0.455493 68.2112 13.0845 83.0073 16.5134 87.3619L38.9386 111.921C40.1216 113.143 41.4323 114.319 42.6575 115.506C43.2865 116.116 43.7365 116.743 44.3721 117.343L50.0258 122.553C53.0094 125.144 54.1275 126.472 57.9834 129.003C61.0055 130.988 61.7288 130.406 65.0457 127.698C65.6899 127.172 66.4368 126.614 67.009 126.103C68.0827 125.145 77.7916 116.474 78.2949 115.441V115.441Z" fill="#1A5CBE"/>
<path fill-rule="evenodd" clip-rule="evenodd" d="M60.3086 52.6359C58.2503 53.8232 55.5331 56.4607 53.8613 58.0796C53.1532 58.7654 48.5831 63.3492 48.8984 64.8275C49.1317 65.9212 58.8369 77.4187 60.5855 76.8726C61.4376 76.6064 64.3815 73.3905 65.1886 72.5632C66.6167 71.099 66.3818 71.5285 68.1016 69.5525C68.8519 68.6902 72.0718 65.6112 71.9037 64.5688C71.7367 63.5354 66.5903 57.4881 65.428 56.2104C64.936 55.6695 64.3951 55.284 63.9079 54.7716C63.2877 54.1194 61.533 51.9296 60.3086 52.6359Z" fill="#1A5CBE"/>
</svg>
