<svg width="29" height="29" viewBox="0 0 29 29" fill="none" xmlns="http://www.w3.org/2000/svg">
<path d="M28.0938 13.5936H16.6147C16.1145 13.5936 15.7085 13.1876 15.7085 12.6874C15.7085 12.1871 16.1145 11.7811 16.6147 11.7811H28.0938C28.5941 11.7811 29.0001 12.1871 29.0001 12.6874C29.0001 13.1876 28.5941 13.5936 28.0938 13.5936Z" fill="white"/>
<path d="M23.5625 18.1247C23.3304 18.1247 23.0986 18.0364 22.922 17.859C22.568 17.5048 22.568 16.9308 22.922 16.5768L26.8129 12.6862L22.922 8.79527C22.568 8.44127 22.568 7.86735 22.922 7.51335C23.2762 7.15913 23.8501 7.15913 24.2041 7.51335L28.7353 12.0445C29.0893 12.3985 29.0893 12.9725 28.7353 13.3265L24.2041 17.8576C24.0265 18.0364 23.7946 18.1247 23.5625 18.1247Z" fill="white"/>
<path d="M9.6666 29C9.40796 29 9.1626 28.9637 8.91745 28.8876L1.64565 26.4649C0.656225 26.1193 0 25.1973 0 24.1668V2.41707C0 1.08427 1.0839 0.000366211 2.41671 0.000366211C2.67513 0.000366211 2.92049 0.0366511 3.16586 0.112761L10.4374 2.53544C11.4271 2.88103 12.0831 3.80298 12.0831 4.83356V26.5833C12.0831 27.9161 10.9994 29 9.6666 29ZM2.41671 1.81284C2.08439 1.81284 1.81247 2.08476 1.81247 2.41707V24.1668C1.81247 24.4241 1.98527 24.6633 2.23174 24.7491L9.46947 27.1609C9.52146 27.1777 9.58917 27.1875 9.6666 27.1875C9.99892 27.1875 10.2706 26.9156 10.2706 26.5833V4.83356C10.2706 4.57625 10.0978 4.33707 9.85135 4.25123L2.61362 1.83939C2.56162 1.82258 2.49392 1.81284 2.41671 1.81284Z" fill="white"/>
<path d="M18.427 9.6666C17.9268 9.6666 17.5208 9.26061 17.5208 8.76037V3.32294C17.5208 2.49038 16.8431 1.81247 16.0105 1.81247H2.41698C1.91673 1.81247 1.51074 1.40648 1.51074 0.906237C1.51074 0.405993 1.91673 0 2.41698 0H16.0105C17.8436 0 19.3333 1.48989 19.3333 3.32294V8.76037C19.3333 9.26061 18.9273 9.6666 18.427 9.6666Z" fill="white"/>
<path d="M16.0106 25.3746H11.1772C10.677 25.3746 10.271 24.9686 10.271 24.4684C10.271 23.9681 10.677 23.5621 11.1772 23.5621H16.0106C16.8432 23.5621 17.5209 22.8842 17.5209 22.0517V16.6142C17.5209 16.114 17.9269 15.708 18.4271 15.708C18.9274 15.708 19.3334 16.114 19.3334 16.6142V22.0517C19.3334 23.8847 17.8437 25.3746 16.0106 25.3746Z" fill="white"/>
</svg>
