<svg width="29" height="27" viewBox="0 0 29 27" fill="none" xmlns="http://www.w3.org/2000/svg">
<path d="M28.0732 5.87448H21.6339V0.84728C21.6339 0.379356 21.2545 0 20.7866 0H0.84728C0.379356 0 0 0.379356 0 0.84728V22.7636C0 25.0996 1.90045 27 4.2364 27H24.6841C27.0201 27 28.9205 25.0996 28.9205 22.7636V6.72176C28.9205 6.25383 28.5411 5.87448 28.0732 5.87448ZM4.2364 25.3054C2.83483 25.3054 1.69456 24.1652 1.69456 22.7636V1.69456H19.9393C19.9393 24.0891 19.9287 22.844 19.9588 23.1633C20.0324 23.9488 20.3254 24.6895 20.7886 25.3054H4.2364ZM27.2259 22.7636C27.2259 24.1652 26.0857 25.3054 24.6841 25.3054C24.494 25.3054 24.3624 25.3054 24.1757 25.3054C22.7742 25.3054 21.6339 24.1652 21.6339 22.7636V7.56904H27.2259V22.7636Z" fill="white"/>
<path d="M17.1714 4.06696H4.51867C4.05074 4.06696 3.67139 4.44631 3.67139 4.91424C3.67139 5.38216 4.05074 5.76152 4.51867 5.76152H17.1714C17.6393 5.76152 18.0187 5.38216 18.0187 4.91424C18.0187 4.44631 17.6393 4.06696 17.1714 4.06696Z" fill="white"/>
<path d="M17.1714 7.68201H4.51867C4.05074 7.68201 3.67139 8.06136 3.67139 8.52929C3.67139 8.99721 4.05074 9.37657 4.51867 9.37657H17.1714C17.6393 9.37657 18.0187 8.99721 18.0187 8.52929C18.0187 8.06136 17.6393 7.68201 17.1714 7.68201Z" fill="white"/>
<path d="M17.1714 21.2385H4.51867C4.05074 21.2385 3.67139 21.6179 3.67139 22.0858C3.67139 22.5537 4.05074 22.9331 4.51867 22.9331H17.1714C17.6393 22.9331 18.0187 22.5537 18.0187 22.0858C18.0187 21.6179 17.6393 21.2385 17.1714 21.2385Z" fill="white"/>
<path d="M17.1714 11.2971H10.8451C10.3772 11.2971 9.9978 11.6764 9.9978 12.1443V18.4707C9.9978 18.9386 10.3772 19.318 10.8451 19.318H17.1714C17.6394 19.318 18.0187 18.9386 18.0187 18.4707V12.1443C18.0187 11.6764 17.6394 11.2971 17.1714 11.2971ZM16.3242 17.6234H11.6924V12.9916H16.3242V17.6234Z" fill="white"/>
<path d="M4.51867 14.3473H7.22996C7.69789 14.3473 8.07725 13.9679 8.07725 13.5C8.07725 13.0321 7.69789 12.6527 7.22996 12.6527H4.51867C4.05074 12.6527 3.67139 13.0321 3.67139 13.5C3.67139 13.9679 4.05074 14.3473 4.51867 14.3473Z" fill="white"/>
<path d="M4.51867 17.9623H7.22996C7.69789 17.9623 8.07725 17.583 8.07725 17.115C8.07725 16.6471 7.69789 16.2678 7.22996 16.2678H4.51867C4.05074 16.2678 3.67139 16.6471 3.67139 17.115C3.67139 17.583 4.05074 17.9623 4.51867 17.9623Z" fill="white"/>
</svg>
