<svg width="18" height="21" viewBox="0 0 18 21" fill="none" xmlns="http://www.w3.org/2000/svg">
<path d="M8.95393 21C10.1089 21 11.0539 20.055 11.0539 18.9H6.85393C6.85393 20.055 7.79893 21 8.95393 21ZM15.7789 14.7V8.925C15.7789 5.67 13.5739 3.045 10.5289 2.31V1.575C10.5289 0.735 9.79393 0 8.95393 0C8.11393 0 7.37893 0.735 7.37893 1.575V2.31C4.33393 3.045 2.12893 5.67 2.12893 8.925V14.7L0.0289307 16.8V17.85H17.8789V16.8L15.7789 14.7ZM13.6789 15.75H4.22893V8.925C4.22893 6.3 6.32893 4.2 8.95393 4.2C11.5789 4.2 13.6789 6.3 13.6789 8.925V15.75Z" fill="#E74C3C"/>
</svg>
