<svg width="22" height="21" viewBox="0 0 22 21" fill="none" xmlns="http://www.w3.org/2000/svg">
<path d="M9.95393 20.9999C11.1089 20.9999 12.0539 20.0549 12.0539 18.8999H7.85393C7.85393 20.0549 8.79893 20.9999 9.95393 20.9999ZM16.7789 14.6999V8.92488C16.7789 5.66988 14.5739 3.04488 11.5289 2.30988V1.57488C11.5289 0.734878 10.7939 -0.00012207 9.95393 -0.00012207C9.11393 -0.00012207 8.37893 0.734878 8.37893 1.57488V2.30988C5.33393 3.04488 3.12893 5.66988 3.12893 8.92488V14.6999L1.02893 16.7999V17.8499H18.8789V16.7999L16.7789 14.6999ZM14.6789 15.7499H5.22893V8.92488C5.22893 6.29988 7.32893 4.19988 9.95393 4.19988C12.5789 4.19988 14.6789 6.29988 14.6789 8.92488V15.7499Z" fill="#2C3E50"/>
<path d="M0.611586 9.37773C0.949345 9.37773 1.22317 9.1039 1.22317 8.76614C1.22317 6.64247 2.0502 4.64589 3.55185 3.1442C3.79069 2.90535 3.79069 2.51814 3.55185 2.27929C3.31304 2.04045 2.92579 2.04045 2.68694 2.27929C0.954238 4.012 0 6.31572 0 8.76614C0 9.1039 0.273828 9.37773 0.611586 9.37773Z" fill="#2C3E50"/>
<path d="M16.186 2.2792C15.9472 2.51804 15.9472 2.90529 16.186 3.14412C17.6877 4.64578 18.5147 6.64238 18.5147 8.76606C18.5147 9.10383 18.7885 9.37764 19.1263 9.37764C19.4641 9.37767 19.7379 9.10383 19.7379 8.76606C19.7379 6.31564 18.7837 4.01191 17.051 2.2792C16.8121 2.04037 16.4249 2.04037 16.186 2.2792Z" fill="#2C3E50"/>
</svg>
