<svg width="29" height="27" viewBox="0 0 29 27" fill="none" xmlns="http://www.w3.org/2000/svg">
<path d="M11.8902 0C5.33414 0 0 5.33414 0 11.8902C0 18.4467 5.33414 23.7805 11.8902 23.7805C18.4467 23.7805 23.7805 18.4467 23.7805 11.8902C23.7805 5.33414 18.4467 0 11.8902 0ZM11.8902 21.5854C6.54439 21.5854 2.19512 17.2361 2.19512 11.8903C2.19512 6.54444 6.54439 2.19512 11.8902 2.19512C17.2361 2.19512 21.5853 6.54439 21.5853 11.8902C21.5853 17.2361 17.2361 21.5854 11.8902 21.5854Z" fill="white"/>
<path d="M27.9468 25.1265L21.6541 18.8338C21.2253 18.405 20.5309 18.405 20.1021 18.8338C19.6733 19.2622 19.6733 19.9574 20.1021 20.3858L26.3948 26.6785C26.6092 26.8928 26.8898 27 27.1708 27C27.4514 27 27.7323 26.8928 27.9468 26.6785C28.3755 26.25 28.3755 25.5549 27.9468 25.1265Z" fill="white"/>
</svg>
